<mxfile host="app.diagrams.net" modified="2024-06-22T18:58:15.506Z" agent="Mozilla/5.0 (Windows NT 10.0; Win64; x64) AppleWebKit/537.36 (KHTML, like Gecko) Chrome/126.0.0.0 Safari/537.36" etag="EaEsBurItxvJ6aIfPEL1" version="24.6.2" type="google" pages="2">
  <diagram id="C5RBs43oDa-KdzZeNtuy" name="Diagrama Classes">
    <mxGraphModel grid="1" page="1" gridSize="10" guides="1" tooltips="1" connect="1" arrows="1" fold="1" pageScale="1" pageWidth="827" pageHeight="1169" math="0" shadow="0">
      <root>
        <mxCell id="WIyWlLk6GJQsqaUBKTNV-0" />
        <mxCell id="WIyWlLk6GJQsqaUBKTNV-1" parent="WIyWlLk6GJQsqaUBKTNV-0" />
        <mxCell id="Ua8HspQ2nzvhV1AG_Kle-0" value="Medicação" style="swimlane;fontStyle=1;align=center;verticalAlign=top;childLayout=stackLayout;horizontal=1;startSize=26;horizontalStack=0;resizeParent=1;resizeParentMax=0;resizeLast=0;collapsible=1;marginBottom=0;whiteSpace=wrap;html=1;" vertex="1" parent="WIyWlLk6GJQsqaUBKTNV-1">
          <mxGeometry x="480" y="522" width="180" height="260" as="geometry" />
        </mxCell>
        <mxCell id="Ua8HspQ2nzvhV1AG_Kle-1" value="&lt;div&gt;- Utilizador._guid&lt;/div&gt;" style="text;strokeColor=none;fillColor=none;align=left;verticalAlign=top;spacingLeft=4;spacingRight=4;overflow=hidden;rotatable=0;points=[[0,0.5],[1,0.5]];portConstraint=eastwest;whiteSpace=wrap;html=1;" vertex="1" parent="Ua8HspQ2nzvhV1AG_Kle-0">
          <mxGeometry y="26" width="180" height="22" as="geometry" />
        </mxCell>
        <mxCell id="Ua8HspQ2nzvhV1AG_Kle-7" value="- guid: _guidMedicacao" style="text;strokeColor=none;fillColor=none;align=left;verticalAlign=top;spacingLeft=4;spacingRight=4;overflow=hidden;rotatable=0;points=[[0,0.5],[1,0.5]];portConstraint=eastwest;whiteSpace=wrap;html=1;" vertex="1" parent="Ua8HspQ2nzvhV1AG_Kle-0">
          <mxGeometry y="48" width="180" height="26" as="geometry" />
        </mxCell>
        <mxCell id="Ua8HspQ2nzvhV1AG_Kle-2" value="- string: _nomeMedicacao" style="text;strokeColor=none;fillColor=none;align=left;verticalAlign=top;spacingLeft=4;spacingRight=4;overflow=hidden;rotatable=0;points=[[0,0.5],[1,0.5]];portConstraint=eastwest;whiteSpace=wrap;html=1;" vertex="1" parent="Ua8HspQ2nzvhV1AG_Kle-0">
          <mxGeometry y="74" width="180" height="26" as="geometry" />
        </mxCell>
        <mxCell id="Ua8HspQ2nzvhV1AG_Kle-3" value="- string: _frequencia" style="text;strokeColor=none;fillColor=none;align=left;verticalAlign=top;spacingLeft=4;spacingRight=4;overflow=hidden;rotatable=0;points=[[0,0.5],[1,0.5]];portConstraint=eastwest;whiteSpace=wrap;html=1;" vertex="1" parent="Ua8HspQ2nzvhV1AG_Kle-0">
          <mxGeometry y="100" width="180" height="22" as="geometry" />
        </mxCell>
        <mxCell id="Ua8HspQ2nzvhV1AG_Kle-4" value="- int: quantidade" style="text;strokeColor=none;fillColor=none;align=left;verticalAlign=top;spacingLeft=4;spacingRight=4;overflow=hidden;rotatable=0;points=[[0,0.5],[1,0.5]];portConstraint=eastwest;whiteSpace=wrap;html=1;" vertex="1" parent="Ua8HspQ2nzvhV1AG_Kle-0">
          <mxGeometry y="122" width="180" height="26" as="geometry" />
        </mxCell>
        <mxCell id="Ua8HspQ2nzvhV1AG_Kle-5" value="- datetime _ultimoConsumo" style="text;strokeColor=none;fillColor=none;align=left;verticalAlign=top;spacingLeft=4;spacingRight=4;overflow=hidden;rotatable=0;points=[[0,0.5],[1,0.5]];portConstraint=eastwest;whiteSpace=wrap;html=1;" vertex="1" parent="Ua8HspQ2nzvhV1AG_Kle-0">
          <mxGeometry y="148" width="180" height="26" as="geometry" />
        </mxCell>
        <mxCell id="Ua8HspQ2nzvhV1AG_Kle-10" value="" style="line;strokeWidth=1;fillColor=none;align=left;verticalAlign=middle;spacingTop=-1;spacingLeft=3;spacingRight=3;rotatable=0;labelPosition=right;points=[];portConstraint=eastwest;strokeColor=inherit;" vertex="1" parent="Ua8HspQ2nzvhV1AG_Kle-0">
          <mxGeometry y="174" width="180" height="8" as="geometry" />
        </mxCell>
        <mxCell id="Ua8HspQ2nzvhV1AG_Kle-11" value="+ AdicionarMedicacao()" style="text;strokeColor=none;fillColor=none;align=left;verticalAlign=top;spacingLeft=4;spacingRight=4;overflow=hidden;rotatable=0;points=[[0,0.5],[1,0.5]];portConstraint=eastwest;whiteSpace=wrap;html=1;" vertex="1" parent="Ua8HspQ2nzvhV1AG_Kle-0">
          <mxGeometry y="182" width="180" height="26" as="geometry" />
        </mxCell>
        <mxCell id="ItHT5uYFLjm0mv92KwGl-12" value="+ RemoverMedicacao()" style="text;strokeColor=none;fillColor=none;align=left;verticalAlign=top;spacingLeft=4;spacingRight=4;overflow=hidden;rotatable=0;points=[[0,0.5],[1,0.5]];portConstraint=eastwest;whiteSpace=wrap;html=1;" vertex="1" parent="Ua8HspQ2nzvhV1AG_Kle-0">
          <mxGeometry y="208" width="180" height="26" as="geometry" />
        </mxCell>
        <mxCell id="ItHT5uYFLjm0mv92KwGl-11" value="+ EditarMedicacao()" style="text;strokeColor=none;fillColor=none;align=left;verticalAlign=top;spacingLeft=4;spacingRight=4;overflow=hidden;rotatable=0;points=[[0,0.5],[1,0.5]];portConstraint=eastwest;whiteSpace=wrap;html=1;" vertex="1" parent="Ua8HspQ2nzvhV1AG_Kle-0">
          <mxGeometry y="234" width="180" height="26" as="geometry" />
        </mxCell>
        <mxCell id="Ua8HspQ2nzvhV1AG_Kle-12" value="Utilizador" style="swimlane;fontStyle=1;align=center;verticalAlign=top;childLayout=stackLayout;horizontal=1;startSize=26;horizontalStack=0;resizeParent=1;resizeParentMax=0;resizeLast=0;collapsible=1;marginBottom=0;whiteSpace=wrap;html=1;" vertex="1" parent="WIyWlLk6GJQsqaUBKTNV-1">
          <mxGeometry x="120" y="568" width="160" height="164" as="geometry" />
        </mxCell>
        <mxCell id="Ua8HspQ2nzvhV1AG_Kle-13" value="- guid: _guidUser" style="text;strokeColor=none;fillColor=none;align=left;verticalAlign=top;spacingLeft=4;spacingRight=4;overflow=hidden;rotatable=0;points=[[0,0.5],[1,0.5]];portConstraint=eastwest;whiteSpace=wrap;html=1;" vertex="1" parent="Ua8HspQ2nzvhV1AG_Kle-12">
          <mxGeometry y="26" width="160" height="26" as="geometry" />
        </mxCell>
        <mxCell id="Ua8HspQ2nzvhV1AG_Kle-14" value="- string: utilizador" style="text;strokeColor=none;fillColor=none;align=left;verticalAlign=top;spacingLeft=4;spacingRight=4;overflow=hidden;rotatable=0;points=[[0,0.5],[1,0.5]];portConstraint=eastwest;whiteSpace=wrap;html=1;" vertex="1" parent="Ua8HspQ2nzvhV1AG_Kle-12">
          <mxGeometry y="52" width="160" height="26" as="geometry" />
        </mxCell>
        <mxCell id="Ua8HspQ2nzvhV1AG_Kle-15" value="- string: password" style="text;strokeColor=none;fillColor=none;align=left;verticalAlign=top;spacingLeft=4;spacingRight=4;overflow=hidden;rotatable=0;points=[[0,0.5],[1,0.5]];portConstraint=eastwest;whiteSpace=wrap;html=1;" vertex="1" parent="Ua8HspQ2nzvhV1AG_Kle-12">
          <mxGeometry y="78" width="160" height="26" as="geometry" />
        </mxCell>
        <mxCell id="Ua8HspQ2nzvhV1AG_Kle-20" value="" style="line;strokeWidth=1;fillColor=none;align=left;verticalAlign=middle;spacingTop=-1;spacingLeft=3;spacingRight=3;rotatable=0;labelPosition=right;points=[];portConstraint=eastwest;strokeColor=inherit;" vertex="1" parent="Ua8HspQ2nzvhV1AG_Kle-12">
          <mxGeometry y="104" width="160" height="8" as="geometry" />
        </mxCell>
        <mxCell id="Ua8HspQ2nzvhV1AG_Kle-21" value="+ Registo()" style="text;strokeColor=none;fillColor=none;align=left;verticalAlign=top;spacingLeft=4;spacingRight=4;overflow=hidden;rotatable=0;points=[[0,0.5],[1,0.5]];portConstraint=eastwest;whiteSpace=wrap;html=1;" vertex="1" parent="Ua8HspQ2nzvhV1AG_Kle-12">
          <mxGeometry y="112" width="160" height="26" as="geometry" />
        </mxCell>
        <mxCell id="ItHT5uYFLjm0mv92KwGl-3" value="+ Login()" style="text;strokeColor=none;fillColor=none;align=left;verticalAlign=top;spacingLeft=4;spacingRight=4;overflow=hidden;rotatable=0;points=[[0,0.5],[1,0.5]];portConstraint=eastwest;whiteSpace=wrap;html=1;" vertex="1" parent="Ua8HspQ2nzvhV1AG_Kle-12">
          <mxGeometry y="138" width="160" height="26" as="geometry" />
        </mxCell>
        <mxCell id="ItHT5uYFLjm0mv92KwGl-1" style="edgeStyle=orthogonalEdgeStyle;rounded=0;orthogonalLoop=1;jettySize=auto;html=1;entryX=1;entryY=0.5;entryDx=0;entryDy=0;endArrow=diamond;endFill=1;" edge="1" parent="WIyWlLk6GJQsqaUBKTNV-1" source="Ua8HspQ2nzvhV1AG_Kle-3" target="Ua8HspQ2nzvhV1AG_Kle-14">
          <mxGeometry relative="1" as="geometry" />
        </mxCell>
        <mxCell id="rEIFWsR_qhyxVoKPinCA-0" style="edgeStyle=orthogonalEdgeStyle;rounded=0;orthogonalLoop=1;jettySize=auto;html=1;entryX=0.5;entryY=0;entryDx=0;entryDy=0;endArrow=none;endFill=0;" edge="1" parent="WIyWlLk6GJQsqaUBKTNV-1" source="ItHT5uYFLjm0mv92KwGl-4" target="Ua8HspQ2nzvhV1AG_Kle-12">
          <mxGeometry relative="1" as="geometry" />
        </mxCell>
        <mxCell id="ItHT5uYFLjm0mv92KwGl-4" value="Supervisor" style="swimlane;fontStyle=1;align=center;verticalAlign=top;childLayout=stackLayout;horizontal=1;startSize=26;horizontalStack=0;resizeParent=1;resizeParentMax=0;resizeLast=0;collapsible=1;marginBottom=0;whiteSpace=wrap;html=1;" vertex="1" parent="WIyWlLk6GJQsqaUBKTNV-1">
          <mxGeometry x="120" y="332" width="160" height="164" as="geometry" />
        </mxCell>
        <mxCell id="ItHT5uYFLjm0mv92KwGl-5" value="- guid: _guid" style="text;strokeColor=none;fillColor=none;align=left;verticalAlign=top;spacingLeft=4;spacingRight=4;overflow=hidden;rotatable=0;points=[[0,0.5],[1,0.5]];portConstraint=eastwest;whiteSpace=wrap;html=1;" vertex="1" parent="ItHT5uYFLjm0mv92KwGl-4">
          <mxGeometry y="26" width="160" height="26" as="geometry" />
        </mxCell>
        <mxCell id="ItHT5uYFLjm0mv92KwGl-6" value="- string: utilizador" style="text;strokeColor=none;fillColor=none;align=left;verticalAlign=top;spacingLeft=4;spacingRight=4;overflow=hidden;rotatable=0;points=[[0,0.5],[1,0.5]];portConstraint=eastwest;whiteSpace=wrap;html=1;" vertex="1" parent="ItHT5uYFLjm0mv92KwGl-4">
          <mxGeometry y="52" width="160" height="26" as="geometry" />
        </mxCell>
        <mxCell id="ItHT5uYFLjm0mv92KwGl-7" value="- string: password" style="text;strokeColor=none;fillColor=none;align=left;verticalAlign=top;spacingLeft=4;spacingRight=4;overflow=hidden;rotatable=0;points=[[0,0.5],[1,0.5]];portConstraint=eastwest;whiteSpace=wrap;html=1;" vertex="1" parent="ItHT5uYFLjm0mv92KwGl-4">
          <mxGeometry y="78" width="160" height="26" as="geometry" />
        </mxCell>
        <mxCell id="ItHT5uYFLjm0mv92KwGl-8" value="" style="line;strokeWidth=1;fillColor=none;align=left;verticalAlign=middle;spacingTop=-1;spacingLeft=3;spacingRight=3;rotatable=0;labelPosition=right;points=[];portConstraint=eastwest;strokeColor=inherit;" vertex="1" parent="ItHT5uYFLjm0mv92KwGl-4">
          <mxGeometry y="104" width="160" height="8" as="geometry" />
        </mxCell>
        <mxCell id="ItHT5uYFLjm0mv92KwGl-9" value="+ Registo()" style="text;strokeColor=none;fillColor=none;align=left;verticalAlign=top;spacingLeft=4;spacingRight=4;overflow=hidden;rotatable=0;points=[[0,0.5],[1,0.5]];portConstraint=eastwest;whiteSpace=wrap;html=1;" vertex="1" parent="ItHT5uYFLjm0mv92KwGl-4">
          <mxGeometry y="112" width="160" height="26" as="geometry" />
        </mxCell>
        <mxCell id="ItHT5uYFLjm0mv92KwGl-10" value="+ Login()" style="text;strokeColor=none;fillColor=none;align=left;verticalAlign=top;spacingLeft=4;spacingRight=4;overflow=hidden;rotatable=0;points=[[0,0.5],[1,0.5]];portConstraint=eastwest;whiteSpace=wrap;html=1;" vertex="1" parent="ItHT5uYFLjm0mv92KwGl-4">
          <mxGeometry y="138" width="160" height="26" as="geometry" />
        </mxCell>
      </root>
    </mxGraphModel>
  </diagram>
  <diagram id="oe_6RaQGzWCQTCldnKej" name="Use-Case">
    <mxGraphModel grid="1" page="1" gridSize="10" guides="1" tooltips="1" connect="1" arrows="1" fold="1" pageScale="1" pageWidth="827" pageHeight="1169" math="0" shadow="0">
      <root>
        <mxCell id="0" />
        <mxCell id="1" parent="0" />
        <mxCell id="_th4H0I9rESN1cnwQgH5-21" value="" style="rounded=0;whiteSpace=wrap;html=1;fillColor=none;dashed=1;" vertex="1" parent="1">
          <mxGeometry x="400" y="200" width="160" height="680" as="geometry" />
        </mxCell>
        <mxCell id="_th4H0I9rESN1cnwQgH5-11" style="edgeStyle=orthogonalEdgeStyle;rounded=0;orthogonalLoop=1;jettySize=auto;html=1;entryX=0;entryY=0.5;entryDx=0;entryDy=0;" edge="1" parent="1" source="_th4H0I9rESN1cnwQgH5-5" target="_th4H0I9rESN1cnwQgH5-6">
          <mxGeometry relative="1" as="geometry" />
        </mxCell>
        <mxCell id="_th4H0I9rESN1cnwQgH5-14" style="edgeStyle=orthogonalEdgeStyle;rounded=0;orthogonalLoop=1;jettySize=auto;html=1;entryX=0;entryY=0.5;entryDx=0;entryDy=0;" edge="1" parent="1" source="_th4H0I9rESN1cnwQgH5-5" target="_th4H0I9rESN1cnwQgH5-7">
          <mxGeometry relative="1" as="geometry" />
        </mxCell>
        <mxCell id="_th4H0I9rESN1cnwQgH5-15" style="edgeStyle=orthogonalEdgeStyle;rounded=0;orthogonalLoop=1;jettySize=auto;html=1;entryX=0;entryY=0.5;entryDx=0;entryDy=0;" edge="1" parent="1" source="_th4H0I9rESN1cnwQgH5-5" target="_th4H0I9rESN1cnwQgH5-8">
          <mxGeometry relative="1" as="geometry" />
        </mxCell>
        <mxCell id="_th4H0I9rESN1cnwQgH5-16" style="edgeStyle=orthogonalEdgeStyle;rounded=0;orthogonalLoop=1;jettySize=auto;html=1;entryX=0;entryY=0.5;entryDx=0;entryDy=0;" edge="1" parent="1" source="_th4H0I9rESN1cnwQgH5-5" target="_th4H0I9rESN1cnwQgH5-9">
          <mxGeometry relative="1" as="geometry" />
        </mxCell>
        <mxCell id="_th4H0I9rESN1cnwQgH5-5" value="" style="shape=actor;whiteSpace=wrap;html=1;" vertex="1" parent="1">
          <mxGeometry x="120" y="519" width="40" height="60" as="geometry" />
        </mxCell>
        <mxCell id="_th4H0I9rESN1cnwQgH5-6" value="Adicionar Medicação" style="ellipse;whiteSpace=wrap;html=1;" vertex="1" parent="1">
          <mxGeometry x="420" y="239" width="120" height="80" as="geometry" />
        </mxCell>
        <mxCell id="_th4H0I9rESN1cnwQgH5-7" value="Eliminar Medicação" style="ellipse;whiteSpace=wrap;html=1;" vertex="1" parent="1">
          <mxGeometry x="420" y="409" width="120" height="80" as="geometry" />
        </mxCell>
        <mxCell id="_th4H0I9rESN1cnwQgH5-8" value="Atualizar Medicação" style="ellipse;whiteSpace=wrap;html=1;" vertex="1" parent="1">
          <mxGeometry x="420" y="579" width="120" height="80" as="geometry" />
        </mxCell>
        <mxCell id="_th4H0I9rESN1cnwQgH5-9" value="Visualizar Medicação" style="ellipse;whiteSpace=wrap;html=1;" vertex="1" parent="1">
          <mxGeometry x="420" y="749" width="120" height="80" as="geometry" />
        </mxCell>
      </root>
    </mxGraphModel>
  </diagram>
</mxfile>
